<svg xmlns="http://www.w3.org/2000/svg" width="256" height="256" viewBox="0 0 256 256" role="img" aria-label="AI">

  <defs>
    <linearGradient id="tile" x1="28" y1="18" x2="224" y2="236" gradientUnits="userSpaceOnUse">
      <stop offset="0" stop-color="#FFFFFF" stop-opacity="0.96"/>
      <stop offset="1" stop-color="#F2FBFF" stop-opacity="0.82"/>
    </linearGradient>
    <linearGradient id="main" x1="72" y1="58" x2="180" y2="190" gradientUnits="userSpaceOnUse">
      <stop offset="0" stop-color="#FFC25A"/>
      <stop offset="1" stop-color="#FF8A24"/>
    </linearGradient>
    <linearGradient id="accent" x1="62" y1="72" x2="176" y2="180" gradientUnits="userSpaceOnUse">
      <stop offset="0" stop-color="#FFF4DE"/>
      <stop offset="1" stop-color="#FFC25A"/>
    </linearGradient>
  </defs>

  <g>
    <path d="M83 52h66l36 36v102c0 12-10 22-22 22H83c-12 0-22-10-22-22V74c0-12 10-22 22-22z" fill="url(#main)"/>
    <path d="M149 52v34c0 9 7 16 16 16h20z" fill="#FFFFFF" opacity="0.25"/>
    <circle cx="102" cy="105" r="16" fill="#FFF5D8" opacity="0.9"/>
    <rect x="130" y="91" width="34" height="34" rx="8" fill="#FFFFFF" opacity="0.82"/>
    <path d="M95 146c24-31 49-31 71 0" fill="none" stroke="#FFF5D8" stroke-width="8" stroke-linecap="round" opacity="0.82"/>
    <circle cx="95" cy="146" r="6" fill="#FFF5D8"/>
    <circle cx="166" cy="146" r="6" fill="#FFF5D8"/>
    <text x="126" y="177" text-anchor="middle" font-family="Inter, Arial, sans-serif" font-size="52" font-weight="850" fill="#FFFFFF" opacity="0.96">AI</text>

    <rect x="83" y="178" width="90" height="30" rx="10" fill="#14283A" opacity="0.22"/>
    <text x="128" y="200" text-anchor="middle" font-family="Inter, Arial, sans-serif" font-size="20" font-weight="850" fill="#E8EDF2" opacity="0.96">AI</text>
  </g>
</svg>
