<svg xmlns="http://www.w3.org/2000/svg" width="256" height="256" viewBox="0 0 256 256" role="img" aria-label="音频">

  <defs>
    <linearGradient id="tile" x1="28" y1="18" x2="224" y2="236" gradientUnits="userSpaceOnUse">
      <stop offset="0" stop-color="#FFFFFF" stop-opacity="0.96"/>
      <stop offset="1" stop-color="#F2FBFF" stop-opacity="0.82"/>
    </linearGradient>
    <linearGradient id="main" x1="72" y1="58" x2="180" y2="190" gradientUnits="userSpaceOnUse">
      <stop offset="0" stop-color="#9D83FF"/>
      <stop offset="1" stop-color="#7257F3"/>
    </linearGradient>
    <linearGradient id="accent" x1="62" y1="72" x2="176" y2="180" gradientUnits="userSpaceOnUse">
      <stop offset="0" stop-color="#F1ECFF"/>
      <stop offset="1" stop-color="#9D83FF"/>
    </linearGradient>
  </defs>

  <g>
    <path d="M83 56h70l31 31v99c0 12-10 22-22 22H83c-12 0-22-10-22-22V78c0-12 10-22 22-22z" fill="url(#main)"/>
    <path d="M153 56v28c0 10 8 18 18 18h13z" fill="#FFFFFF" opacity="0.22"/>
    <path d="M86 124h19l28-25v65l-28-24H86z" fill="#EDE8FF" opacity="0.92"/>
    <path d="M149 117c8 9 8 22 0 31M164 103c17 21 17 44 0 65" fill="none" stroke="#EDE8FF" stroke-width="8" stroke-linecap="round" opacity="0.86"/>
    <path d="M90 91h47" stroke="#FFFFFF" stroke-width="8" stroke-linecap="round" opacity="0.34"/>

    <rect x="83" y="178" width="90" height="30" rx="10" fill="#14283A" opacity="0.22"/>
    <text x="128" y="200" text-anchor="middle" font-family="Inter, Arial, sans-serif" font-size="20" font-weight="850" fill="#E8EDF2" opacity="0.96">MP3</text>
  </g>
</svg>
