<svg xmlns="http://www.w3.org/2000/svg" width="256" height="256" viewBox="0 0 256 256" role="img" aria-label="相机">

  <defs>
    <linearGradient id="tile" x1="28" y1="18" x2="224" y2="236" gradientUnits="userSpaceOnUse">
      <stop offset="0" stop-color="#FFFFFF" stop-opacity="0.96"/>
      <stop offset="1" stop-color="#F2FBFF" stop-opacity="0.82"/>
    </linearGradient>
    <linearGradient id="main" x1="72" y1="58" x2="180" y2="190" gradientUnits="userSpaceOnUse">
      <stop offset="0" stop-color="#5CE5A0"/>
      <stop offset="1" stop-color="#2CC774"/>
    </linearGradient>
    <linearGradient id="accent" x1="62" y1="72" x2="176" y2="180" gradientUnits="userSpaceOnUse">
      <stop offset="0" stop-color="#E9FFF2"/>
      <stop offset="1" stop-color="#5CE5A0"/>
    </linearGradient>
  </defs>

  <g>
    <path d="M82 52h68l36 36v102c0 12-10 22-22 22H82c-12 0-22-10-22-22V74c0-12 10-22 22-22z" fill="url(#main)"/>
    <path d="M150 52v34c0 9 7 16 16 16h20z" fill="#FFFFFF" opacity="0.24"/>
    <path d="M89 104h22l7-13h30l7 13h10c8 0 15 7 15 15v48c0 8-7 15-15 15H89c-8 0-15-7-15-15v-48c0-8 7-15 15-15z" fill="#FFFFFF" opacity="0.22"/>
    <circle cx="127" cy="144" r="26" fill="#FFFFFF" opacity="0.88"/>
    <circle cx="127" cy="144" r="15" fill="url(#main)"/>
    <circle cx="163" cy="119" r="5" fill="#FFFFFF" opacity="0.44"/>
  </g>
</svg>
