<svg xmlns="http://www.w3.org/2000/svg" width="256" height="256" viewBox="0 0 256 256" role="img" aria-label="视频">

  <defs>
    <linearGradient id="tile" x1="28" y1="18" x2="224" y2="236" gradientUnits="userSpaceOnUse">
      <stop offset="0" stop-color="#FFFFFF" stop-opacity="0.96"/>
      <stop offset="1" stop-color="#F2FBFF" stop-opacity="0.82"/>
    </linearGradient>
    <linearGradient id="main" x1="72" y1="58" x2="180" y2="190" gradientUnits="userSpaceOnUse">
      <stop offset="0" stop-color="#FFB35C"/>
      <stop offset="1" stop-color="#FF7448"/>
    </linearGradient>
    <linearGradient id="accent" x1="62" y1="72" x2="176" y2="180" gradientUnits="userSpaceOnUse">
      <stop offset="0" stop-color="#FFF0DC"/>
      <stop offset="1" stop-color="#FFB35C"/>
    </linearGradient>
  </defs>

  <g>
    <path d="M82 52h68l36 36v102c0 12-10 22-22 22H82c-12 0-22-10-22-22V74c0-12 10-22 22-22z" fill="url(#main)"/>
    <path d="M150 52v34c0 9 7 16 16 16h20z" fill="#FFFFFF" opacity="0.24"/>
    <rect x="82" y="103" width="86" height="55" rx="13" fill="#FFFFFF" opacity="0.18"/>
    <path d="M113 113l38 20-38 21z" fill="#FFF8EA" opacity="0.96"/>
    <circle cx="161" cy="82" r="5" fill="#FFFFFF" opacity="0.38"/>
    <path d="M88 181h66" stroke="#FFFFFF" stroke-width="8" stroke-linecap="round" opacity="0.35"/>
  </g>
</svg>
